<?xml version="1.0" encoding="UTF-8" standalone="no"?>
<!-- Created with Inkscape (http://www.inkscape.org/) -->

<svg
   xmlns:dc="http://purl.org/dc/elements/1.1/"
   xmlns:cc="http://creativecommons.org/ns#"
   xmlns:rdf="http://www.w3.org/1999/02/22-rdf-syntax-ns#"
   xmlns:svg="http://www.w3.org/2000/svg"
   xmlns="http://www.w3.org/2000/svg"
   xmlns:sodipodi="http://sodipodi.sourceforge.net/DTD/sodipodi-0.dtd"
   xmlns:inkscape="http://www.inkscape.org/namespaces/inkscape"
   id="svg3336"
   version="1.1"
   inkscape:version="0.91 r13725"
   width="400"
   height="250"
   viewBox="0 0 400 250"
   sodipodi:docname="niajsciolema.svg"
   inkscape:export-filename="F:\User\Document\GitHub\niaj-scio.github.io\images\niajsciologo128px.png"
   inkscape:export-xdpi="48"
   inkscape:export-ydpi="48">
  <metadata
     id="metadata3342">
    <rdf:RDF>
      <cc:Work
         rdf:about="">
        <dc:format>image/svg+xml</dc:format>
        <dc:type
           rdf:resource="http://purl.org/dc/dcmitype/StillImage" />
        <dc:title></dc:title>
      </cc:Work>
    </rdf:RDF>
  </metadata>
  <defs
     id="defs3340" />
  <sodipodi:namedview
     pagecolor="#ffffff"
     bordercolor="#666666"
     borderopacity="1"
     objecttolerance="10"
     gridtolerance="10"
     guidetolerance="10"
     inkscape:pageopacity="0"
     inkscape:pageshadow="2"
     inkscape:window-width="1366"
     inkscape:window-height="705"
     id="namedview3338"
     showgrid="false"
     inkscape:zoom="0.79254883"
     inkscape:cx="301.33191"
     inkscape:cy="132.63965"
     inkscape:window-x="1352"
     inkscape:window-y="-8"
     inkscape:window-maximized="1"
     inkscape:current-layer="svg3336"
     showguides="true"
     inkscape:guide-bbox="true" />
  <rect
     style="fill:#00ffff;fill-opacity:1;stroke:none;stroke-width:7;stroke-miterlimit:4;stroke-dasharray:none;stroke-opacity:0.14492756"
     id="rect3434"
     width="400.60623"
     height="248.56511"
     x="0"
     y="1.4348799" />
  <path
     style="fill:#1a1a1a;fill-rule:evenodd;stroke:none;stroke-width:1.42150021px;stroke-linecap:butt;stroke-linejoin:miter;stroke-opacity:1"
     d="m 148.66577,54.481707 -6.89519,0.100573 -0.11551,111.39329 -59.637701,-85.6082 -12.575655,0.0151 79.439006,104.25548 z"
     id="path3370"
     inkscape:connector-curvature="0"
     sodipodi:nodetypes="ccccccc" />
  <path
     style="fill:#000000;fill-rule:evenodd;stroke:none;stroke-width:1.42150021px;stroke-linecap:butt;stroke-linejoin:miter;stroke-opacity:1"
     d="m 150.49829,54.576576 10.62765,-0.12027 0.1367,145.878034 -16.61528,-0.24372 -92.287026,-119.83938 13.978787,0.0646 85.627039,114.76168 z"
     id="path3372"
     inkscape:connector-curvature="0"
     sodipodi:nodetypes="cccccccc" />
  <g
     style="font-style:normal;font-weight:normal;font-size:40px;line-height:125%;font-family:sans-serif;letter-spacing:0px;word-spacing:0px;fill:#000000;fill-opacity:1;stroke:none;stroke-width:1px;stroke-linecap:butt;stroke-linejoin:miter;stroke-opacity:1"
     id="text4195"
     transform="matrix(0.7625572,0,0.46039708,0.7625572,-24.158767,33.063884)">
    <path
       id="path4206"
       style="font-style:normal;font-variant:normal;font-weight:normal;font-stretch:condensed;font-family:'Roboto Condensed';-inkscape-font-specification:'Roboto Condensed,  Condensed'"
       d="m 108.58994,46.75301 q -5.55328,5.058594 -11.279447,7.890625 -5.704725,2.8125 -10.099256,2.8125 -4.335938,0 -3.806994,-2.8125 0.550384,-2.832031 6.103662,-7.890625 l 8.576491,-7.8125 q 5.531834,-5.039063 11.220854,-7.890625 5.70854,-2.851563 10.02495,-2.851563 4.375,0 3.86177,2.851563 -0.4937,2.851562 -6.02554,7.890625 l -8.57649,7.8125 z m 4.6955,-7.871094 q 4.07383,-3.710937 4.6907,-5.625 0.63831,-1.933594 -2.07654,-1.933594 -2.67578,0 -6.22424,1.933594 -3.52703,1.914063 -7.60086,5.625 l -8.640814,7.871094 q -4.116716,3.75 -4.813617,5.683594 -0.677367,1.933593 1.978883,1.933593 2.734375,0 6.300458,-1.914062 3.60706,-1.933594 7.74521,-5.703125 l 8.64082,-7.871094 z m -39.881751,18.164063 -3.945312,0 31.218423,-28.4375 3.94532,0 -31.218431,28.4375 z m 0.902806,-8.632813 -0.07006,0.117188 q -4.693717,4.257812 -9.51276,6.601562 -4.797599,2.324219 -8.899162,2.324219 -4.179687,0 -3.59215,-2.8125 0.587537,-2.8125 6.119374,-7.851563 l 8.662256,-7.890625 q 5.531836,-5.039062 11.101751,-7.871093 5.589448,-2.832032 9.710542,-2.832032 4.179687,0 3.917157,2.285157 -0.26253,2.285156 -5.028213,6.679687 l -0.187238,0.117188 -3.75,0 q 3.350566,-3.105469 3.786779,-4.570313 0.436217,-1.464844 -2.083314,-1.464844 -2.441407,0 -5.954627,1.972657 -3.51322,1.972656 -7.52273,5.625 l -8.726579,7.949218 q -4.073834,3.710938 -4.872211,5.683594 -0.778844,1.972656 1.721156,1.972656 2.460938,0 5.158959,-1.425781 2.738994,-1.445312 6.251536,-4.609375 l 3.769532,0 z m -26.688128,1.484375 q 2.208447,-2.011719 2.490755,-3.300781 0.282309,-1.289063 -1.477661,-2.265625 -2.711702,-1.230469 -2.714107,-3.203125 0.01904,-1.992188 3.599721,-5.253906 3.687891,-3.359375 8.44877,-5.507813 4.801852,-2.167969 8.590914,-2.167969 3.945313,0 3.60318,2.5 -0.301161,2.480469 -4.238707,5.996094 l -0.167708,0.117188 -3.808594,0 q 2.723036,-2.480469 3.127831,-4.023438 0.445767,-1.5625 -1.878452,-1.5625 -2.207031,0 -4.854531,1.308594 -2.606527,1.289062 -4.814973,3.300781 -1.994034,1.816406 -2.077211,3.066406 -0.06173,1.230469 1.792072,2.246094 2.557362,1.210938 2.294401,3.300781 -0.262961,2.089844 -3.907971,5.410157 -3.837979,3.496093 -8.491652,5.546875 -4.653673,2.050781 -8.559923,2.050781 -3.808594,0 -4.194415,-2.246094 -0.344848,-2.265625 4.255465,-6.367187 l 0.167708,-0.117188 3.808594,0 q -3.216185,2.929688 -3.236515,4.335938 -8e-4,1.40625 2.479669,1.40625 2.226563,0 4.82736,-1.230469 2.64177,-1.25 4.935981,-3.339844 z"
       inkscape:connector-curvature="0" />
  </g>
  <path
     sodipodi:type="inkscape:offset"
     inkscape:radius="0"
     inkscape:original="M 275.49219 106.33203 C 272.96615 106.33203 270.89583 107.05469 269.28125 108.5 C 267.67969 109.93229 266.87891 111.76823 266.87891 114.00781 C 266.87891 116.18229 267.60156 117.93359 269.04688 119.26172 C 270.49219 120.57682 272.56901 121.64453 275.27734 122.46484 C 277.16536 123.11589 278.48698 123.87109 279.24219 124.73047 C 279.9974 125.58984 280.375 126.6901 280.375 128.03125 C 280.375 129.42448 279.95182 130.53776 279.10547 131.37109 C 278.27214 132.19141 277.11328 132.60156 275.62891 132.60156 C 273.97526 132.60156 272.63411 132.13281 271.60547 131.19531 C 270.58984 130.25781 270.08203 128.8125 270.08203 126.85938 L 266.27344 126.85938 L 266.23438 126.97656 C 266.16927 129.71094 267.08073 131.83333 268.96875 133.34375 C 270.86979 134.84115 273.08984 135.58984 275.62891 135.58984 C 278.23307 135.58984 280.33594 134.90625 281.9375 133.53906 C 283.53906 132.17188 284.33984 130.32292 284.33984 127.99219 C 284.33984 125.77865 283.66276 123.97526 282.30859 122.58203 C 280.95443 121.1888 278.98177 120.08854 276.39062 119.28125 C 274.41146 118.60417 272.99219 117.85547 272.13281 117.03516 C 271.27344 116.20182 270.84375 115.17969 270.84375 113.96875 C 270.84375 112.6276 271.24089 111.52734 272.03516 110.66797 C 272.84245 109.79557 273.98177 109.35938 275.45312 109.35938 C 277.0026 109.35938 278.20052 109.88021 279.04688 110.92188 C 279.90625 111.95052 280.33594 113.29167 280.33594 114.94531 L 284.14453 114.94531 L 284.18359 114.82812 C 284.23568 112.48438 283.45443 110.48568 281.83984 108.83203 C 280.23828 107.16536 278.1224 106.33203 275.49219 106.33203 z M 296.76172 106.33203 C 294.01432 106.33203 291.8138 107.27604 290.16016 109.16406 C 288.51953 111.05208 287.69922 113.67578 287.69922 117.03516 L 287.69922 124.92578 C 287.69922 128.28516 288.53255 130.90234 290.19922 132.77734 C 291.86589 134.65234 294.09245 135.58984 296.87891 135.58984 C 299.61328 135.58984 301.72917 134.8151 303.22656 133.26562 C 304.72396 131.70312 305.47917 129.5026 305.49219 126.66406 L 305.43359 126.54688 L 301.66406 126.54688 C 301.63802 128.65625 301.24089 130.19271 300.47266 131.15625 C 299.71745 132.10677 298.51953 132.58203 296.87891 132.58203 C 295.21224 132.58203 293.91667 131.92448 292.99219 130.60938 C 292.08073 129.29427 291.625 127.39974 291.625 124.92578 L 291.625 116.97656 C 291.625 114.54167 292.07422 112.66667 292.97266 111.35156 C 293.87109 110.03646 295.13411 109.37891 296.76172 109.37891 C 298.44141 109.37891 299.67188 109.86719 300.45312 110.84375 C 301.23438 111.82031 301.64453 113.34375 301.68359 115.41406 L 305.43359 115.41406 L 305.49219 115.29688 C 305.45312 112.36719 304.6849 110.14062 303.1875 108.61719 C 301.6901 107.09375 299.54818 106.33203 296.76172 106.33203 z M 328.26562 106.33203 C 325.38802 106.33203 323.08984 107.28255 321.37109 109.18359 C 319.66536 111.08464 318.8125 113.71484 318.8125 117.07422 L 318.8125 124.88672 C 318.8125 128.25911 319.66536 130.88932 321.37109 132.77734 C 323.07682 134.65234 325.375 135.58984 328.26562 135.58984 C 331.19531 135.58984 333.53255 134.65234 335.27734 132.77734 C 337.02214 130.88932 337.89453 128.25911 337.89453 124.88672 L 337.89453 117.07422 C 337.89453 113.71484 337.01562 111.08464 335.25781 109.18359 C 333.51302 107.28255 331.18229 106.33203 328.26562 106.33203 z M 179.39844 106.74219 L 179.39844 135.17969 L 183.36328 135.17969 L 183.36328 114.06641 L 183.48047 114.02734 L 194.26172 135.17969 L 198.20703 135.17969 L 198.20703 106.74219 L 194.26172 106.74219 L 194.26172 127.79688 L 194.14453 127.83594 L 183.36328 106.74219 L 179.39844 106.74219 z M 204.04688 106.74219 L 204.04688 135.17969 L 207.99219 135.17969 L 207.99219 106.74219 L 204.04688 106.74219 z M 220.6875 106.74219 L 211.9375 135.17969 L 215.96094 135.17969 L 218.03125 127.99219 L 227.09375 127.99219 L 229.16406 135.17969 L 233.1875 135.17969 L 224.51562 106.74219 L 220.6875 106.74219 z M 246.3125 106.74219 L 246.3125 127.03516 C 246.3125 128.72786 245.96094 130.07552 245.25781 131.07812 C 244.55469 132.08073 243.66927 132.58203 242.60156 132.58203 C 241.39062 132.58203 240.43359 132.13932 239.73047 131.25391 C 239.04036 130.35547 238.69531 129.00781 238.69531 127.21094 L 234.88672 127.21094 L 234.82812 127.32812 C 234.77604 130.03646 235.45312 132.09375 236.85938 133.5 C 238.27865 134.89323 240.19271 135.58984 242.60156 135.58984 C 244.84115 135.58984 246.67708 134.82161 248.10938 133.28516 C 249.54167 131.73568 250.25781 129.65234 250.25781 127.03516 L 250.25781 106.74219 L 246.3125 106.74219 z M 310.0625 106.74219 L 310.0625 135.17969 L 314.00781 135.17969 L 314.00781 106.74219 L 310.0625 106.74219 z M 328.26562 109.45703 C 330.07552 109.45703 331.47526 110.10156 332.46484 111.39062 C 333.45443 112.66667 333.94922 114.54167 333.94922 117.01562 L 333.94922 124.88672 C 333.94922 127.39974 333.45443 129.30078 332.46484 130.58984 C 331.48828 131.86589 330.08854 132.50391 328.26562 132.50391 C 326.49479 132.50391 325.1276 131.85938 324.16406 130.57031 C 323.21354 129.28125 322.73828 127.38672 322.73828 124.88672 L 322.73828 117.01562 C 322.73828 114.54167 323.21354 112.66667 324.16406 111.39062 C 325.11458 110.10156 326.48177 109.45703 328.26562 109.45703 z M 222.52344 112.42578 L 222.64062 112.42578 L 226.19531 124.84766 L 218.94922 124.84766 L 222.52344 112.42578 z M 254.32031 121.56641 L 254.32031 124.59375 L 263.03125 124.59375 L 263.03125 121.56641 L 254.32031 121.56641 z "
     style="font-style:normal;font-weight:normal;font-size:40px;line-height:125%;font-family:sans-serif;letter-spacing:0px;word-spacing:0px;fill:#000000;fill-opacity:1;stroke:none;stroke-width:1px;stroke-linecap:butt;stroke-linejoin:miter;stroke-opacity:1"
     id="path3345"
     d="m 275.49219,106.33203 c -2.52604,0 -4.59636,0.72266 -6.21094,2.16797 -1.60156,1.43229 -2.40234,3.26823 -2.40234,5.50781 0,2.17448 0.72265,3.92578 2.16797,5.25391 1.44531,1.3151 3.52213,2.38281 6.23046,3.20312 1.88802,0.65105 3.20964,1.40625 3.96485,2.26563 0.75521,0.85937 1.13281,1.95963 1.13281,3.30078 0,1.39323 -0.42318,2.50651 -1.26953,3.33984 -0.83333,0.82032 -1.99219,1.23047 -3.47656,1.23047 -1.65365,0 -2.9948,-0.46875 -4.02344,-1.40625 -1.01563,-0.9375 -1.52344,-2.38281 -1.52344,-4.33593 l -3.80859,0 -0.0391,0.11718 c -0.0651,2.73438 0.84635,4.85677 2.73437,6.36719 1.90104,1.4974 4.12109,2.24609 6.66016,2.24609 2.60416,0 4.70703,-0.68359 6.30859,-2.05078 1.60156,-1.36718 2.40234,-3.21614 2.40234,-5.54687 0,-2.21354 -0.67708,-4.01693 -2.03125,-5.41016 -1.35416,-1.39323 -3.32682,-2.49349 -5.91797,-3.30078 -1.97916,-0.67708 -3.39843,-1.42578 -4.25781,-2.24609 -0.85937,-0.83334 -1.28906,-1.85547 -1.28906,-3.06641 0,-1.34115 0.39714,-2.44141 1.19141,-3.30078 0.80729,-0.8724 1.94661,-1.30859 3.41796,-1.30859 1.54948,0 2.7474,0.52083 3.59376,1.5625 0.85937,1.02864 1.28906,2.36979 1.28906,4.02343 l 3.80859,0 0.0391,-0.11719 c 0.0521,-2.34374 -0.72916,-4.34244 -2.34375,-5.99609 -1.60156,-1.66667 -3.71744,-2.5 -6.34765,-2.5 z m 21.26953,0 c -2.7474,0 -4.94792,0.94401 -6.60156,2.83203 -1.64063,1.88802 -2.46094,4.51172 -2.46094,7.8711 l 0,7.89062 c 0,3.35938 0.83333,5.97656 2.5,7.85156 1.66667,1.875 3.89323,2.8125 6.67969,2.8125 2.73437,0 4.85026,-0.77474 6.34765,-2.32422 1.4974,-1.5625 2.25261,-3.76302 2.26563,-6.60156 l -0.0586,-0.11718 -3.76953,0 c -0.026,2.10937 -0.42317,3.64583 -1.1914,4.60937 -0.75521,0.95052 -1.95313,1.42578 -3.59375,1.42578 -1.66667,0 -2.96224,-0.65755 -3.88672,-1.97265 -0.91146,-1.31511 -1.36719,-3.20964 -1.36719,-5.6836 l 0,-7.94922 c 0,-2.43489 0.44922,-4.30989 1.34766,-5.625 0.89843,-1.3151 2.16145,-1.97265 3.78906,-1.97265 1.67969,0 2.91016,0.48828 3.6914,1.46484 0.78126,0.97656 1.19141,2.5 1.23047,4.57031 l 3.75,0 0.0586,-0.11718 c -0.0391,-2.92969 -0.80729,-5.15626 -2.30469,-6.67969 -1.4974,-1.52344 -3.63932,-2.28516 -6.42578,-2.28516 z m 31.5039,0 c -2.8776,0 -5.17578,0.95052 -6.89453,2.85156 -1.70573,1.90105 -2.55859,4.53125 -2.55859,7.89063 l 0,7.8125 c 0,3.37239 0.85286,6.0026 2.55859,7.89062 1.70573,1.875 4.00391,2.8125 6.89453,2.8125 2.92969,0 5.26693,-0.9375 7.01172,-2.8125 1.7448,-1.88802 2.61719,-4.51823 2.61719,-7.89062 l 0,-7.8125 c 0,-3.35938 -0.87891,-5.98958 -2.63672,-7.89063 -1.74479,-1.90104 -4.07552,-2.85156 -6.99219,-2.85156 z m -148.86718,0.41016 0,28.4375 3.96484,0 0,-21.11328 0.11719,-0.0391 10.78125,21.15235 3.94531,0 0,-28.4375 -3.94531,0 0,21.05469 -0.11719,0.0391 -10.78125,-21.09375 -3.96484,0 z m 24.64844,0 0,28.4375 3.94531,0 0,-28.4375 -3.94531,0 z m 16.64062,0 -8.75,28.4375 4.02344,0 2.07031,-7.1875 9.0625,0 2.07031,7.1875 4.02344,0 -8.67188,-28.4375 -3.82812,0 z m 25.625,0 0,20.29297 c 0,1.6927 -0.35156,3.04036 -1.05469,4.04296 -0.70312,1.00261 -1.58854,1.50391 -2.65625,1.50391 -1.21094,0 -2.16797,-0.44271 -2.87109,-1.32812 -0.69011,-0.89844 -1.03516,-2.2461 -1.03516,-4.04297 l -3.80859,0 -0.0586,0.11718 c -0.0521,2.70834 0.625,4.76563 2.03126,6.17188 1.41927,1.39323 3.33333,2.08984 5.74218,2.08984 2.23959,0 4.07552,-0.76823 5.50782,-2.30468 1.43229,-1.54948 2.14843,-3.63282 2.14843,-6.25 l 0,-20.29297 -3.94531,0 z m 63.75,0 0,28.4375 3.94531,0 0,-28.4375 -3.94531,0 z m 18.20312,2.71484 c 1.8099,0 3.20964,0.64453 4.19922,1.93359 0.98959,1.27605 1.48438,3.15105 1.48438,5.625 l 0,7.8711 c 0,2.51302 -0.49479,4.41406 -1.48438,5.70312 -0.97656,1.27605 -2.3763,1.91407 -4.19922,1.91407 -1.77083,0 -3.13802,-0.64453 -4.10156,-1.9336 -0.95052,-1.28906 -1.42578,-3.18359 -1.42578,-5.68359 l 0,-7.8711 c 0,-2.47395 0.47526,-4.34895 1.42578,-5.625 0.95052,-1.28906 2.31771,-1.93359 4.10156,-1.93359 z m -105.74218,2.96875 0.11718,0 3.55469,12.42188 -7.24609,0 3.57422,-12.42188 z m 31.79687,9.14063 0,3.02734 8.71094,0 0,-3.02734 -8.71094,0 z"
     transform="matrix(1,0,-0.25875182,1,45.178133,-5.0470076)" />
  <text
     xml:space="preserve"
     style="font-style:normal;font-weight:normal;font-size:12.5px;line-height:125%;font-family:sans-serif;letter-spacing:0px;word-spacing:0px;fill:#000000;fill-opacity:1;stroke:none;stroke-width:1px;stroke-linecap:butt;stroke-linejoin:miter;stroke-opacity:1"
     x="182.95403"
     y="155.36861"
     id="text3347"
     sodipodi:linespacing="125%"><tspan
       sodipodi:role="line"
       id="tspan3349"
       x="182.95403"
       y="155.36861"
       style="font-style:normal;font-variant:normal;font-weight:normal;font-stretch:condensed;font-family:'Roboto Condensed';-inkscape-font-specification:'Roboto Condensed,  Condensed'">Descubriendo un nuevo aprendizaje</tspan><tspan
       sodipodi:role="line"
       x="182.95403"
       y="170.99361"
       id="tspan3351"
       style="font-style:normal;font-variant:normal;font-weight:normal;font-stretch:condensed;font-family:'Roboto Condensed';-inkscape-font-specification:'Roboto Condensed,  Condensed'"> en la mensajería</tspan></text>
</svg>
