<?xml version="1.0" encoding="UTF-8" standalone="no"?>
<!-- Created with Inkscape (http://www.inkscape.org/) -->

<svg
   xmlns:dc="http://purl.org/dc/elements/1.1/"
   xmlns:cc="http://creativecommons.org/ns#"
   xmlns:rdf="http://www.w3.org/1999/02/22-rdf-syntax-ns#"
   xmlns:svg="http://www.w3.org/2000/svg"
   xmlns="http://www.w3.org/2000/svg"
   xmlns:sodipodi="http://sodipodi.sourceforge.net/DTD/sodipodi-0.dtd"
   xmlns:inkscape="http://www.inkscape.org/namespaces/inkscape"
   id="svg3336"
   version="1.1"
   inkscape:version="0.91 r13725"
   width="240"
   height="240"
   viewBox="0 0 240 240"
   sodipodi:docname="niajsciologo.svg"
   inkscape:export-filename="F:\User\Document\GitHub\niaj-scio.github.io\images\niajsciologo64px.png"
   inkscape:export-xdpi="24"
   inkscape:export-ydpi="24">
  <metadata
     id="metadata3342">
    <rdf:RDF>
      <cc:Work
         rdf:about="">
        <dc:format>image/svg+xml</dc:format>
        <dc:type
           rdf:resource="http://purl.org/dc/dcmitype/StillImage" />
        <dc:title />
      </cc:Work>
    </rdf:RDF>
  </metadata>
  <defs
     id="defs3340" />
  <sodipodi:namedview
     pagecolor="#ffffff"
     bordercolor="#666666"
     borderopacity="1"
     objecttolerance="10"
     gridtolerance="10"
     guidetolerance="10"
     inkscape:pageopacity="0"
     inkscape:pageshadow="2"
     inkscape:window-width="1366"
     inkscape:window-height="705"
     id="namedview3338"
     showgrid="false"
     inkscape:zoom="1.1208333"
     inkscape:cx="35.808421"
     inkscape:cy="117.57028"
     inkscape:window-x="1352"
     inkscape:window-y="-8"
     inkscape:window-maximized="1"
     inkscape:current-layer="text4195"
     showguides="true"
     inkscape:guide-bbox="true" />
  <rect
     style="fill:#00ffff;fill-opacity:1;stroke:none;stroke-width:7;stroke-miterlimit:4;stroke-dasharray:none;stroke-opacity:0.14492756"
     id="rect3434"
     width="241.62549"
     height="239.73285"
     x="0"
     y="0.2671434" />
  <path
     style="fill:#1a1a1a;fill-rule:evenodd;stroke:none;stroke-width:1.42150021px;stroke-linecap:butt;stroke-linejoin:miter;stroke-opacity:1"
     d="m 191.31788,31.872097 -9.0422,0.13189 L 182.1242,178.08259 103.91669,65.817967 87.425265,65.837787 191.59976,202.55603 Z"
     id="path3370"
     inkscape:connector-curvature="0"
     sodipodi:nodetypes="ccccccc" />
  <path
     style="fill:#000000;fill-rule:evenodd;stroke:none;stroke-width:1.42150021px;stroke-linecap:butt;stroke-linejoin:miter;stroke-opacity:1"
     d="m 193.721,31.996507 13.93686,-0.15772 0.17926,191.301103 -21.7889,-0.31961 L 65.025135,65.665667 83.356595,65.750367 195.64593,216.2462 Z"
     id="path3372"
     inkscape:connector-curvature="0"
     sodipodi:nodetypes="cccccccc" />
  <g
     style="font-style:normal;font-weight:normal;font-size:40px;line-height:125%;font-family:sans-serif;letter-spacing:0px;word-spacing:0px;fill:#000000;fill-opacity:1;stroke:none;stroke-width:1px;stroke-linecap:butt;stroke-linejoin:miter;stroke-opacity:1"
     id="text4195"
     transform="matrix(1,0,0.60375416,1,-35.320256,3.7852556)">
    <path
       id="path4206"
       style="font-style:normal;font-variant:normal;font-weight:normal;font-stretch:condensed;font-family:'Roboto Condensed';-inkscape-font-specification:'Roboto Condensed,  Condensed'"
       d="m 108.58994,46.75301 q -5.55328,5.058594 -11.279447,7.890625 -5.704725,2.8125 -10.099256,2.8125 -4.335938,0 -3.806994,-2.8125 0.550384,-2.832031 6.103662,-7.890625 l 8.576491,-7.8125 q 5.531834,-5.039063 11.220854,-7.890625 5.70854,-2.851563 10.02495,-2.851563 4.375,0 3.86177,2.851563 -0.4937,2.851562 -6.02554,7.890625 l -8.57649,7.8125 z m 4.6955,-7.871094 q 4.07383,-3.710937 4.6907,-5.625 0.63831,-1.933594 -2.07654,-1.933594 -2.67578,0 -6.22424,1.933594 -3.52703,1.914063 -7.60086,5.625 l -8.640814,7.871094 q -4.116716,3.75 -4.813617,5.683594 -0.677367,1.933593 1.978883,1.933593 2.734375,0 6.300458,-1.914062 3.60706,-1.933594 7.74521,-5.703125 l 8.64082,-7.871094 z m -39.881751,18.164063 -3.945312,0 31.218423,-28.4375 3.94532,0 -31.218431,28.4375 z m 0.902806,-8.632813 -0.07006,0.117188 q -4.693717,4.257812 -9.51276,6.601562 -4.797599,2.324219 -8.899162,2.324219 -4.179687,0 -3.59215,-2.8125 0.587537,-2.8125 6.119374,-7.851563 l 8.662256,-7.890625 q 5.531836,-5.039062 11.101751,-7.871093 5.589448,-2.832032 9.710542,-2.832032 4.179687,0 3.917157,2.285157 -0.26253,2.285156 -5.028213,6.679687 l -0.187238,0.117188 -3.75,0 q 3.350566,-3.105469 3.786779,-4.570313 0.436217,-1.464844 -2.083314,-1.464844 -2.441407,0 -5.954627,1.972657 -3.51322,1.972656 -7.52273,5.625 l -8.726579,7.949218 q -4.073834,3.710938 -4.872211,5.683594 -0.778844,1.972656 1.721156,1.972656 2.460938,0 5.158959,-1.425781 2.738994,-1.445312 6.251536,-4.609375 l 3.769532,0 z m -26.688128,1.484375 q 2.208447,-2.011719 2.490755,-3.300781 0.282309,-1.289063 -1.477661,-2.265625 -2.711702,-1.230469 -2.714107,-3.203125 0.01904,-1.992188 3.599721,-5.253906 3.687891,-3.359375 8.44877,-5.507813 4.801852,-2.167969 8.590914,-2.167969 3.945313,0 3.60318,2.5 -0.301161,2.480469 -4.238707,5.996094 l -0.167708,0.117188 -3.808594,0 q 2.723036,-2.480469 3.127831,-4.023438 0.445767,-1.5625 -1.878452,-1.5625 -2.207031,0 -4.854531,1.308594 -2.606527,1.289062 -4.814973,3.300781 -1.994034,1.816406 -2.077211,3.066406 -0.06173,1.230469 1.792072,2.246094 2.557362,1.210938 2.294401,3.300781 -0.262961,2.089844 -3.907971,5.410157 -3.837979,3.496093 -8.491652,5.546875 -4.653673,2.050781 -8.559923,2.050781 -3.808594,0 -4.194415,-2.246094 -0.344848,-2.265625 4.255465,-6.367187 l 0.167708,-0.117188 3.808594,0 q -3.216185,2.929688 -3.236515,4.335938 -8e-4,1.40625 2.479669,1.40625 2.226563,0 4.82736,-1.230469 2.64177,-1.25 4.935981,-3.339844 z"
       inkscape:connector-curvature="0" />
  </g>
</svg>
