<?xml version="1.0" encoding="UTF-8" standalone="no"?>
<!-- Created with Inkscape (http://www.inkscape.org/) -->

<svg
   xmlns:dc="http://purl.org/dc/elements/1.1/"
   xmlns:cc="http://creativecommons.org/ns#"
   xmlns:rdf="http://www.w3.org/1999/02/22-rdf-syntax-ns#"
   xmlns:svg="http://www.w3.org/2000/svg"
   xmlns="http://www.w3.org/2000/svg"
   xmlns:sodipodi="http://sodipodi.sourceforge.net/DTD/sodipodi-0.dtd"
   xmlns:inkscape="http://www.inkscape.org/namespaces/inkscape"
   width="100mm"
   height="100mm"
   viewBox="0 0 354.33071 354.33071"
   id="svg2"
   version="1.1"
   inkscape:version="0.91 r13725"
   sodipodi:docname="Sanguilema.svg"
   inkscape:export-filename="F:\User\Document\GitHub\niaj-scio.github.io\images\sanguinetlema.png"
   inkscape:export-xdpi="299.974"
   inkscape:export-ydpi="299.974">
  <defs
     id="defs4" />
  <sodipodi:namedview
     id="base"
     pagecolor="#ffffff"
     bordercolor="#666666"
     borderopacity="1.0"
     inkscape:pageopacity="0.0"
     inkscape:pageshadow="2"
     inkscape:zoom="0.98994949"
     inkscape:cx="146.21498"
     inkscape:cy="228.37777"
     inkscape:document-units="px"
     inkscape:current-layer="layer1"
     showgrid="false"
     inkscape:snap-others="false"
     inkscape:snap-grids="false"
     inkscape:window-width="1366"
     inkscape:window-height="705"
     inkscape:window-x="1352"
     inkscape:window-y="-8"
     inkscape:window-maximized="1" />
  <metadata
     id="metadata7">
    <rdf:RDF>
      <cc:Work
         rdf:about="">
        <dc:format>image/svg+xml</dc:format>
        <dc:type
           rdf:resource="http://purl.org/dc/dcmitype/StillImage" />
        <dc:title></dc:title>
      </cc:Work>
    </rdf:RDF>
  </metadata>
  <g
     inkscape:label="Capa 1"
     inkscape:groupmode="layer"
     id="layer1"
     transform="translate(0,-698.0315)">
    <rect
       y="697.29358"
       x="-2.0203049"
       height="356.58386"
       width="356.58383"
       id="rect3678"
       style="fill:#004455;fill-opacity:1;stroke:none;stroke-width:7;stroke-miterlimit:4;stroke-dasharray:none;stroke-opacity:0.14492756" />
    <rect
       style="fill:#006680;fill-opacity:1;stroke:none;stroke-width:7;stroke-miterlimit:4;stroke-dasharray:none;stroke-opacity:0.14492756"
       id="rect3637"
       width="356.58383"
       height="323.96948"
       x="-2.0203049"
       y="713.60083" />
    <path
       style="fill:#00aad4;fill-opacity:1;stroke:none;stroke-width:7;stroke-miterlimit:4;stroke-dasharray:none;stroke-opacity:0.14492756"
       id="path3336"
       sodipodi:type="arc"
       sodipodi:cx="91.565979"
       sodipodi:cy="860.59827"
       sodipodi:rx="72.474617"
       sodipodi:ry="72.474617"
       sodipodi:start="0"
       sodipodi:end="6.2798866"
       sodipodi:open="true"
       d="M 164.0406,860.59827 A 72.474617,72.474617 0 0 1 91.625747,933.07286 72.474617,72.474617 0 0 1 19.091461,860.7178 72.474617,72.474617 0 0 1 91.386675,788.12387 72.474617,72.474617 0 0 1 164.0402,860.35919" />
    <path
       style="fill:#00aad4;fill-opacity:1;stroke:none;stroke-width:7;stroke-miterlimit:4;stroke-dasharray:none;stroke-opacity:0.14492756"
       id="path3336-7"
       sodipodi:type="arc"
       sodipodi:cx="255.50507"
       sodipodi:cy="862.61859"
       sodipodi:rx="72.474617"
       sodipodi:ry="72.474617"
       sodipodi:start="0"
       sodipodi:end="6.2798866"
       sodipodi:open="true"
       d="m 327.97968,862.61859 a 72.474617,72.474617 0 0 1 -72.41485,72.47459 72.474617,72.474617 0 0 1 -72.53428,-72.35505 72.474617,72.474617 0 0 1 72.29521,-72.59393 72.474617,72.474617 0 0 1 72.65353,72.23532" />
    <path
       style="fill:#de8787;fill-opacity:1;stroke:none;stroke-width:7;stroke-miterlimit:4;stroke-dasharray:none;stroke-opacity:0.14492756"
       id="path3336-71-9"
       sodipodi:type="arc"
       sodipodi:cx="-610.29327"
       sodipodi:cy="685.60596"
       sodipodi:rx="24.486183"
       sodipodi:ry="24.486183"
       sodipodi:start="0"
       sodipodi:end="6.2798866"
       sodipodi:open="true"
       d="m -585.80709,685.60596 a 24.486183,24.486183 0 0 1 -24.46599,24.48617 24.486183,24.486183 0 0 1 -24.50634,-24.44579 24.486183,24.486183 0 0 1 24.42557,-24.52649 24.486183,24.486183 0 0 1 24.54663,24.40533"
       transform="matrix(0.5,-0.8660254,0.8660254,0.5,0,0)" />
    <path
       style="fill:#d35f5f;fill-opacity:1;stroke:none;stroke-width:7;stroke-miterlimit:4;stroke-dasharray:none;stroke-opacity:0.14492756"
       id="path3336-71-62-1"
       sodipodi:type="arc"
       sodipodi:cx="-620.42938"
       sodipodi:cy="629.34387"
       sodipodi:rx="23.542721"
       sodipodi:ry="23.542721"
       sodipodi:start="0"
       sodipodi:end="6.2798866"
       sodipodi:open="true"
       d="m -596.88666,629.34387 a 23.542721,23.542721 0 0 1 -23.52331,23.54271 23.542721,23.542721 0 0 1 -23.5621,-23.50388 23.542721,23.542721 0 0 1 23.48444,-23.58148 23.542721,23.542721 0 0 1 23.60084,23.46499"
       transform="matrix(0.5,-0.8660254,0.8660254,0.5,0,0)" />
    <path
       style="fill:#d35f5f;fill-opacity:1;stroke:none;stroke-width:7;stroke-miterlimit:4;stroke-dasharray:none;stroke-opacity:0.14492756"
       id="path3336-71-5-4"
       sodipodi:type="arc"
       sodipodi:cx="-658.03357"
       sodipodi:cy="687.99945"
       sodipodi:rx="24.486183"
       sodipodi:ry="24.486183"
       sodipodi:start="0"
       sodipodi:end="6.2798866"
       sodipodi:open="true"
       d="m -633.54739,687.99945 a 24.486183,24.486183 0 0 1 -24.46599,24.48618 24.486183,24.486183 0 0 1 -24.50634,-24.44579 24.486183,24.486183 0 0 1 24.42557,-24.5265 24.486183,24.486183 0 0 1 24.54663,24.40534"
       transform="matrix(0.5,-0.8660254,0.8660254,0.5,0,0)" />
    <path
       style="fill:#de8787;fill-opacity:1;stroke:none;stroke-width:7;stroke-miterlimit:4;stroke-dasharray:none;stroke-opacity:0.14492756"
       id="path3336-71-3-7"
       sodipodi:type="arc"
       sodipodi:cx="-574.45135"
       sodipodi:cy="628.55115"
       sodipodi:rx="23.542721"
       sodipodi:ry="23.542721"
       sodipodi:start="0"
       sodipodi:end="6.2798866"
       sodipodi:open="true"
       d="m -550.90863,628.55115 a 23.542721,23.542721 0 0 1 -23.52331,23.54271 23.542721,23.542721 0 0 1 -23.5621,-23.50388 23.542721,23.542721 0 0 1 23.48444,-23.58148 23.542721,23.542721 0 0 1 23.60084,23.46499"
       transform="matrix(0.5,-0.8660254,0.8660254,0.5,0,0)" />
    <path
       style="fill:#de8787;fill-opacity:1;stroke:none;stroke-width:7;stroke-miterlimit:4;stroke-dasharray:none;stroke-opacity:0.14492756"
       id="path3336-71-9-2"
       sodipodi:type="arc"
       sodipodi:cx="477.5549"
       sodipodi:cy="-699.07068"
       sodipodi:rx="24.486183"
       sodipodi:ry="24.486183"
       sodipodi:start="0"
       sodipodi:end="6.2798866"
       sodipodi:open="true"
       d="m 502.04108,-699.07068 a 24.486183,24.486183 0 0 1 -24.46599,24.48618 24.486183,24.486183 0 0 1 -24.50634,-24.44579 24.486183,24.486183 0 0 1 24.42557,-24.5265 24.486183,24.486183 0 0 1 24.54663,24.40534"
       transform="matrix(-0.77469262,0.632338,-0.632338,-0.77469262,0,0)" />
    <path
       style="fill:#d35f5f;fill-opacity:1;stroke:none;stroke-width:7;stroke-miterlimit:4;stroke-dasharray:none;stroke-opacity:0.14492756"
       id="path3336-71-62-1-4"
       sodipodi:type="arc"
       sodipodi:cx="467.41879"
       sodipodi:cy="-755.33276"
       sodipodi:rx="23.542721"
       sodipodi:ry="23.542721"
       sodipodi:start="0"
       sodipodi:end="6.2798866"
       sodipodi:open="true"
       d="m 490.96151,-755.33276 a 23.542721,23.542721 0 0 1 -23.5233,23.54271 23.542721,23.542721 0 0 1 -23.56211,-23.50388 23.542721,23.542721 0 0 1 23.48445,-23.58148 23.542721,23.542721 0 0 1 23.60084,23.46499"
       transform="matrix(-0.77469262,0.632338,-0.632338,-0.77469262,0,0)" />
    <path
       style="fill:#d35f5f;fill-opacity:1;stroke:none;stroke-width:7;stroke-miterlimit:4;stroke-dasharray:none;stroke-opacity:0.14492756"
       id="path3336-71-5-4-1"
       sodipodi:type="arc"
       sodipodi:cx="429.81461"
       sodipodi:cy="-696.67719"
       sodipodi:rx="24.486183"
       sodipodi:ry="24.486183"
       sodipodi:start="0"
       sodipodi:end="6.2798866"
       sodipodi:open="true"
       d="m 454.30079,-696.67719 a 24.486183,24.486183 0 0 1 -24.46599,24.48618 24.486183,24.486183 0 0 1 -24.50634,-24.44579 24.486183,24.486183 0 0 1 24.42557,-24.52649 24.486183,24.486183 0 0 1 24.54663,24.40533"
       transform="matrix(-0.77469262,0.632338,-0.632338,-0.77469262,0,0)" />
    <path
       style="fill:#de8787;fill-opacity:1;stroke:none;stroke-width:7;stroke-miterlimit:4;stroke-dasharray:none;stroke-opacity:0.14492756"
       id="path3336-71-3-7-0"
       sodipodi:type="arc"
       sodipodi:cx="513.39679"
       sodipodi:cy="-756.12549"
       sodipodi:rx="23.542721"
       sodipodi:ry="23.542721"
       sodipodi:start="0"
       sodipodi:end="6.2798866"
       sodipodi:open="true"
       d="m 536.93951,-756.12549 a 23.542721,23.542721 0 0 1 -23.52331,23.54271 23.542721,23.542721 0 0 1 -23.5621,-23.50388 23.542721,23.542721 0 0 1 23.48444,-23.58148 23.542721,23.542721 0 0 1 23.60084,23.46499"
       transform="matrix(-0.77469262,0.632338,-0.632338,-0.77469262,0,0)" />
  </g>
</svg>
